<svg width="2000" height="240" viewBox="0 0 2000 240" fill="none" xmlns="http://www.w3.org/2000/svg">
<g clip-path="url(#clip0_627_2499)">
<path d="M-1000 150C-1000 150 -750 90 -500 90C-250 90 0 150 0 150C0 150 250 210 500 210C750 210 1000 150 1000 150C1000 150 1250 90 1500 90C1750 90 2000 150 2000 150C2000 150 2250 210 2500 210C2750 210 3000 150 3000 150" stroke="#267F8B" stroke-opacity="0.5" stroke-width="1.6"/>
<path d="M-1000 90C-1000 90 -750 30 -500 30C-250 30 0 90 0 90C0 90 250 150 500 150C750 150 1000 90 1000 90C1000 90 1250 30 1500 30C1750 30 2000 90 2000 90C2000 90 2250 150 2500 150C2750 150 3000 90 3000 90" stroke="#267F8B" stroke-opacity="0.5" stroke-width="1.6"/>
<path d="M-1000 210C-1000 210 -750 150 -500 150C-250 150 0 210 0 210C0 210 250 270 500 270C750 270 1000 210 1000 210C1000 210 1250 150 1500 150C1750 150 2000 210 2000 210C2000 210 2250 270 2500 270C2750 270 3000 210 3000 210" stroke="#267F8B" stroke-opacity="0.5" stroke-width="1.6"/>
<path d="M-1000 30C-1000 30 -750 -30 -500 -30C-250 -30 0 30 0 30C0 30 250 90 500 90C750 90 1000 30 1000 30C1000 30 1250 -30 1500 -30C1750 -30 2000 30 2000 30C2000 30 2250 90 2500 90C2750 90 3000 30 3000 30" stroke="#267F8B" stroke-opacity="0.5" stroke-width="1.6"/>
<path d="M-1000 -30C-1000 -30 -750 -90 -500 -90C-250 -90 0 -30 0 -30C0 -30 250 30 500 30C750 30 1000 -30 1000 -30C1000 -30 1250 -90 1500 -90C1750 -90 2000 -30 2000 -30C2000 -30 2250 30 2500 30C2750 30 3000 -30 3000 -30" stroke="#267F8B" stroke-opacity="0.5" stroke-width="1.6"/>
<path d="M-1000 270C-1000 270 -750 210 -500 210C-250 210 0 270 0 270C0 270 250 330 500 330C750 330 1000 270 1000 270C1000 270 1250 210 1500 210C1750 210 2000 270 2000 270C2000 270 2250 330 2500 330C2750 330 3000 270 3000 270" stroke="#267F8B" stroke-opacity="0.5" stroke-width="1.6"/>
</g>
<defs>
<clipPath id="clip0_627_2499">
<rect width="2000" height="240" fill="white"/>
</clipPath>
</defs>
</svg>
