<svg xmlns="http://www.w3.org/2000/svg" width="107.524" height="148" viewBox="0 0 107.524 148">
  <path id="number-5" d="M62.615-99.18a40.209,40.209,0,0,0-22,6.11l5.092-27.089h58.863v-23.423H25.546L11.9-68.832l23.016,5.7C39.6-70.462,47.339-76.368,59.356-76.368c17.924,0,25.663,12.017,25.663,25.256C85.019-37.262,76.669-23,58.745-23,41.84-23,33.082-35.022,31.656-46.632L7.622-42.558C11.085-18.728,31.656.418,58.949.418a51.537,51.537,0,0,0,51.938-51.53C110.886-76.979,91.13-99.18,62.615-99.18Z" transform="translate(-5.362 145.582)" fill="none" stroke="#e9c662" stroke-width="4"/>
</svg>
