<svg xmlns="http://www.w3.org/2000/svg" width="204.958" height="148" viewBox="0 0 204.958 148">
  <path id="number-10" d="M56.587-143.642v8.423c0,9.426-4.412,13.437-14.039,13.437H23.9v20.056H56.587V-3.854H80.654V-143.642ZM177.924-1.848c37.5,0,46.93-37.1,46.93-71.6,0-34.9-9.827-72.4-48.334-72.4-42.318,0-47.131,42.318-47.131,72.2C129.389-44.166,134.6-1.848,177.924-1.848Zm-.6-23.064c-22.663,0-23.265-25.872-23.265-48.735,0-23.666.6-49.136,22.462-49.136s22.462,25.27,22.462,48.936C198.982-51.386,198.581-24.912,177.322-24.912Z" transform="translate(-21.896 147.848)" fill="none" stroke="#e9c662" stroke-width="4"/>
</svg>
