<svg xmlns="http://www.w3.org/2000/svg" width="107.468" height="148" viewBox="0 0 107.468 148">
  <path id="number-9" d="M59.564-145.642c-28.311,0-51.53,20.164-51.53,49.494,0,27.7,18.738,48.883,47.864,48.883,2.444,0,4.685-.2,7.129-.407L33.086-1.642H61.194l42.365-68.232A50.233,50.233,0,0,0,111.5-96.352C111.5-125.478,88.079-145.642,59.564-145.642Zm0,75.564c-14.868,0-26.682-9.777-26.682-26.071S44.7-122.219,59.564-122.219c15.072,0,26.885,9.777,26.885,26.071S74.637-70.078,59.564-70.078Z" transform="translate(-6.034 147.642)" fill="none" stroke="#e9c662" stroke-width="4"/>
</svg>
