<svg xmlns="http://www.w3.org/2000/svg" width="107.468" height="148" viewBox="0 0 107.468 148">
  <path id="number-6" d="M63.844-97.958c-2.444,0-4.685.2-7.129.407l29.941-46.031H58.548L16.183-75.35A50.233,50.233,0,0,0,8.24-48.872C8.24-19.746,31.663.418,60.178.418c28.311,0,51.53-20.164,51.53-49.494C111.708-76.776,92.97-97.958,63.844-97.958ZM60.178-23c-15.072,0-26.885-9.777-26.885-26.071S45.106-75.146,60.178-75.146c14.868,0,26.682,9.777,26.682,26.071S75.046-23,60.178-23Z" transform="translate(-6.24 145.582)" fill="none" stroke="#e9c662" stroke-width="4"/>
</svg>
