<svg xmlns="http://www.w3.org/2000/svg" width="107.632" height="148" viewBox="0 0 107.632 148">
  <path id="number-8" d="M59.026-1.642c27.113,0,51.816-14.46,51.816-43.381,0-15.264-6.828-27.515-20.285-34.745,8.234-5.824,13.456-14.46,13.456-26.51,0-24.7-21.69-39.364-44.987-39.364s-44.987,14.661-44.987,39.364c0,12.05,5.222,20.686,13.456,26.51C14.038-72.537,7.21-60.286,7.21-45.023,7.21-15.9,32.114-1.642,59.026-1.642Zm0-84.954c-12.452,0-20.887-6.828-20.887-18.075,0-11.046,8.636-17.874,20.887-17.874s20.887,6.828,20.887,17.874C79.913-93.424,71.478-86.6,59.026-86.6Zm0,62.059c-15.665,0-27.715-7.632-27.715-22.695,0-14.661,11.448-22.9,27.715-22.9s27.715,8.234,27.715,22.9C86.741-32.169,74.691-24.537,59.026-24.537Z" transform="translate(-5.21 147.642)" fill="none" stroke="#e9c662" stroke-width="4"/>
</svg>
