<svg xmlns="http://www.w3.org/2000/svg" width="107.833" height="148" viewBox="0 0 107.833 148">
  <path id="number-3" d="M57.991-1.642c27.314,0,51.816-14.862,51.816-43.18,0-15.264-7.029-29.523-23.7-34.745,11.849-6.427,16.268-16.87,16.268-27.715,0-24.1-21.49-38.36-44.787-38.36-24.1,0-44.787,15.264-44.787,41.573l23.7,1.607c.2-12.653,8.636-20.084,21.49-20.084,11.247,0,20.285,5.824,20.285,18.276,0,10.845-7.029,17.874-26.51,17.874v19.079c15.063,0,33.941.6,33.941,19.883,0,16.067-12.854,22.695-27.113,22.695-16.469,0-28.72-8.636-28.72-24.5l-23.9,1.406C5.974-16.906,30.074-1.642,57.991-1.642Z" transform="translate(-3.974 147.642)" fill="none" stroke="#e9c662" stroke-width="4"/>
</svg>
