<svg xmlns="http://www.w3.org/2000/svg" width="35.259" height="30.178" viewBox="0 0 35.259 30.178">
  <path id="icon-child" d="M20.885,35.475a15,15,0,0,1-5.572-1.19h0a15.213,15.213,0,0,1-8.85-10.677,3.492,3.492,0,0,1-.707-.217,3.581,3.581,0,0,1,.854-6.836,15.086,15.086,0,0,1,29.332.614,3.587,3.587,0,0,1,2.89,3.589A3.588,3.588,0,0,1,35.8,24.224,15.075,15.075,0,0,1,21.207,35.479C21.1,35.479,20.993,35.478,20.885,35.475ZM8.357,22.467a13.109,13.109,0,0,0,7.766,9.91h0A13.022,13.022,0,0,0,33.95,23l.189-.928.941.1c.045.005.092.01.139.011a1.506,1.506,0,0,0,.619-2.893,1.485,1.485,0,0,0-.556-.119c-.046,0-.092,0-.139,0l-.946.066-.15-.936a13.106,13.106,0,0,0-7.766-9.909A13.021,13.021,0,0,0,8.454,17.776l-.189.928-.941-.1c-.045-.005-.092-.01-.139-.011A1.506,1.506,0,0,0,7.122,21.6c.046,0,.092,0,.139-.005l.946-.066Zm9.731,5.461a7.879,7.879,0,0,1-2.616-1.807l.9-.861a6.7,6.7,0,0,0,9.455.2l.862.9a7.955,7.955,0,0,1-8.6,1.571Zm6.1-6.072a1.511,1.511,0,1,1,.59.12A1.512,1.512,0,0,1,24.187,21.856Zm-7.973-.167a1.509,1.509,0,1,1,.589.12A1.512,1.512,0,0,1,16.214,21.689Z" transform="translate(-3.573 -5.301)" fill="#e9c662"/>
</svg>
